<?xml version="1.0" encoding="utf-8"?>

<!DOCTYPE svg PUBLIC "-//W3C//DTD SVG 1.1//EN" "http://www.w3.org/Graphics/SVG/1.1/DTD/svg11.dtd">
<svg version="1.1" id="Layer_1" xmlns="http://www.w3.org/2000/svg" xmlns:xlink="http://www.w3.org/1999/xlink" x="0px" y="0px"
	 viewBox="0 0 1619.8 1703.159" enable-background="new 0 0 1619.8 1703.159" xml:space="preserve">
<g>
	<circle cx="809.9" cy="851.579" r="524.128"/>
	<path d="M661.379,308.826L809.9,51.579l148.521,257.247C855.989,277.322,757.089,278.373,661.379,308.826z"/>
	<path d="M370.721,499.781l-31.049-295.416l271.362,120.818C509.647,359.905,430.253,418.887,370.721,499.781z"/>
	<path d="M247.815,825.112L49.055,604.366l290.552-61.759C277.991,630.29,248.429,724.675,247.815,825.112z"/>
	<path d="M339.607,1160.552l-290.552-61.759l198.76-220.746C249.506,985.201,281.068,1078.936,339.607,1160.552z"/>
	<path d="M611.034,1377.975l-271.362,120.818l31.049-295.416C435.073,1289.073,515.703,1346.354,611.034,1377.975z"/>
	<path d="M958.421,1394.333L809.9,1651.579l-148.521-257.247C763.811,1425.837,862.711,1424.786,958.421,1394.333z"/>
	<path d="M1249.079,1203.377l31.049,295.416l-271.362-120.818C1110.153,1343.254,1189.547,1284.271,1249.079,1203.377z"/>
	<path d="M1371.985,878.047l198.76,220.746l-290.552,61.759C1341.809,1072.868,1371.371,978.484,1371.985,878.047z"/>
	<path d="M1280.194,542.607l290.552,61.759l-198.76,220.746C1370.294,717.957,1338.732,624.223,1280.194,542.607z"/>
	<path d="M1008.766,325.184l271.362-120.818l-31.049,295.416C1184.727,414.086,1104.097,356.804,1008.766,325.184z"/>
</g>
</svg>
